<mxfile host="Electron" agent="Mozilla/5.0 (Windows NT 10.0; Win64; x64) AppleWebKit/537.36 (KHTML, like Gecko) draw.io/27.0.9 Chrome/134.0.6998.205 Electron/35.4.0 Safari/537.36" version="27.0.9">
  <diagram name="Page-1" id="5sTz30wpBOryBaA_3mz-">
    <mxGraphModel dx="3030" dy="1428" grid="1" gridSize="10" guides="1" tooltips="1" connect="1" arrows="1" fold="1" page="1" pageScale="1" pageWidth="850" pageHeight="1100" math="0" shadow="0">
      <root>
        <mxCell id="0" />
        <mxCell id="1" parent="0" />
        <mxCell id="8rLd1wxn6OlxTt_jbVe9-2" value="&lt;font style=&quot;font-size: 15px;&quot;&gt;Airline&lt;/font&gt;" style="rounded=1;arcSize=10;whiteSpace=wrap;html=1;align=center;strokeWidth=2;" parent="1" vertex="1">
          <mxGeometry x="245" y="220" width="120" height="40" as="geometry" />
        </mxCell>
        <mxCell id="8rLd1wxn6OlxTt_jbVe9-12" style="edgeStyle=orthogonalEdgeStyle;rounded=0;orthogonalLoop=1;jettySize=auto;html=1;entryX=0.5;entryY=0;entryDx=0;entryDy=0;endArrow=none;startFill=0;exitX=0.5;exitY=1;exitDx=0;exitDy=0;" parent="1" source="8rLd1wxn6OlxTt_jbVe9-11" target="8rLd1wxn6OlxTt_jbVe9-2" edge="1">
          <mxGeometry relative="1" as="geometry" />
        </mxCell>
        <mxCell id="8rLd1wxn6OlxTt_jbVe9-11" value="&lt;u&gt;Airline-ID&lt;/u&gt;" style="ellipse;whiteSpace=wrap;html=1;align=center;strokeWidth=2;" parent="1" vertex="1">
          <mxGeometry x="155" y="140" width="70" height="40" as="geometry" />
        </mxCell>
        <mxCell id="8rLd1wxn6OlxTt_jbVe9-14" style="edgeStyle=orthogonalEdgeStyle;rounded=0;orthogonalLoop=1;jettySize=auto;html=1;endArrow=none;startFill=0;exitX=0.5;exitY=1;exitDx=0;exitDy=0;" parent="1" source="8rLd1wxn6OlxTt_jbVe9-13" edge="1">
          <mxGeometry relative="1" as="geometry">
            <mxPoint x="304.9999999999999" y="220" as="targetPoint" />
          </mxGeometry>
        </mxCell>
        <mxCell id="8rLd1wxn6OlxTt_jbVe9-13" value="Name" style="ellipse;whiteSpace=wrap;html=1;align=center;strokeWidth=2;" parent="1" vertex="1">
          <mxGeometry x="205" y="110" width="50" height="30" as="geometry" />
        </mxCell>
        <mxCell id="8rLd1wxn6OlxTt_jbVe9-17" style="edgeStyle=orthogonalEdgeStyle;rounded=0;orthogonalLoop=1;jettySize=auto;html=1;entryX=0.5;entryY=0;entryDx=0;entryDy=0;endArrow=none;startFill=0;" parent="1" source="8rLd1wxn6OlxTt_jbVe9-16" target="8rLd1wxn6OlxTt_jbVe9-2" edge="1">
          <mxGeometry relative="1" as="geometry" />
        </mxCell>
        <mxCell id="8rLd1wxn6OlxTt_jbVe9-16" value="Address" style="ellipse;whiteSpace=wrap;html=1;align=center;strokeWidth=2;" parent="1" vertex="1">
          <mxGeometry x="275" y="110" width="60" height="30" as="geometry" />
        </mxCell>
        <mxCell id="8rLd1wxn6OlxTt_jbVe9-19" style="edgeStyle=orthogonalEdgeStyle;rounded=0;orthogonalLoop=1;jettySize=auto;html=1;endArrow=none;startFill=0;exitX=0.5;exitY=1;exitDx=0;exitDy=0;" parent="1" source="8rLd1wxn6OlxTt_jbVe9-18" target="8rLd1wxn6OlxTt_jbVe9-2" edge="1">
          <mxGeometry relative="1" as="geometry">
            <Array as="points">
              <mxPoint x="425" y="200" />
              <mxPoint x="305" y="200" />
            </Array>
          </mxGeometry>
        </mxCell>
        <mxCell id="8rLd1wxn6OlxTt_jbVe9-18" value="Contact-Person" style="ellipse;whiteSpace=wrap;html=1;align=center;strokeWidth=2;" parent="1" vertex="1">
          <mxGeometry x="385" y="140" width="100" height="40" as="geometry" />
        </mxCell>
        <mxCell id="8rLd1wxn6OlxTt_jbVe9-21" style="edgeStyle=orthogonalEdgeStyle;rounded=0;orthogonalLoop=1;jettySize=auto;html=1;entryX=0.5;entryY=0;entryDx=0;entryDy=0;endArrow=none;startFill=0;exitX=0.5;exitY=1;exitDx=0;exitDy=0;" parent="1" source="8rLd1wxn6OlxTt_jbVe9-22" target="8rLd1wxn6OlxTt_jbVe9-2" edge="1">
          <mxGeometry relative="1" as="geometry">
            <mxPoint x="365.0000000000002" y="137" as="sourcePoint" />
            <Array as="points">
              <mxPoint x="370" y="180" />
              <mxPoint x="305" y="180" />
            </Array>
          </mxGeometry>
        </mxCell>
        <mxCell id="8rLd1wxn6OlxTt_jbVe9-22" value="Numbers" style="ellipse;shape=doubleEllipse;margin=3;whiteSpace=wrap;html=1;align=center;" parent="1" vertex="1">
          <mxGeometry x="345" y="100" width="70" height="40" as="geometry" />
        </mxCell>
        <mxCell id="8rLd1wxn6OlxTt_jbVe9-23" value="&lt;font style=&quot;font-size: 15px;&quot;&gt;Employee&lt;/font&gt;" style="rounded=1;arcSize=10;whiteSpace=wrap;html=1;align=center;strokeWidth=2;" parent="1" vertex="1">
          <mxGeometry x="650" y="220" width="120" height="40" as="geometry" />
        </mxCell>
        <mxCell id="8rLd1wxn6OlxTt_jbVe9-24" style="edgeStyle=orthogonalEdgeStyle;rounded=0;orthogonalLoop=1;jettySize=auto;html=1;entryX=0.5;entryY=0;entryDx=0;entryDy=0;endArrow=none;startFill=0;exitX=0.5;exitY=1;exitDx=0;exitDy=0;" parent="1" target="8rLd1wxn6OlxTt_jbVe9-23" edge="1">
          <mxGeometry relative="1" as="geometry">
            <mxPoint x="595" y="180" as="sourcePoint" />
          </mxGeometry>
        </mxCell>
        <mxCell id="8rLd1wxn6OlxTt_jbVe9-25" value="&lt;u&gt;Emp-ID&lt;/u&gt;" style="ellipse;whiteSpace=wrap;html=1;align=center;strokeWidth=2;" parent="1" vertex="1">
          <mxGeometry x="560" y="145" width="70" height="40" as="geometry" />
        </mxCell>
        <mxCell id="8rLd1wxn6OlxTt_jbVe9-26" style="edgeStyle=orthogonalEdgeStyle;rounded=0;orthogonalLoop=1;jettySize=auto;html=1;endArrow=none;startFill=0;exitX=0.5;exitY=1;exitDx=0;exitDy=0;" parent="1" source="8rLd1wxn6OlxTt_jbVe9-27" edge="1">
          <mxGeometry relative="1" as="geometry">
            <mxPoint x="709.9999999999999" y="220" as="targetPoint" />
          </mxGeometry>
        </mxCell>
        <mxCell id="8rLd1wxn6OlxTt_jbVe9-27" value="Name" style="ellipse;whiteSpace=wrap;html=1;align=center;strokeWidth=2;" parent="1" vertex="1">
          <mxGeometry x="610" y="110" width="50" height="30" as="geometry" />
        </mxCell>
        <mxCell id="8rLd1wxn6OlxTt_jbVe9-28" style="edgeStyle=orthogonalEdgeStyle;rounded=0;orthogonalLoop=1;jettySize=auto;html=1;entryX=0.5;entryY=0;entryDx=0;entryDy=0;endArrow=none;startFill=0;" parent="1" source="8rLd1wxn6OlxTt_jbVe9-29" target="8rLd1wxn6OlxTt_jbVe9-23" edge="1">
          <mxGeometry relative="1" as="geometry">
            <Array as="points">
              <mxPoint x="680" y="180" />
              <mxPoint x="710" y="180" />
            </Array>
          </mxGeometry>
        </mxCell>
        <mxCell id="8rLd1wxn6OlxTt_jbVe9-29" value="Address" style="ellipse;whiteSpace=wrap;html=1;align=center;strokeWidth=2;" parent="1" vertex="1">
          <mxGeometry x="640" y="140" width="60" height="30" as="geometry" />
        </mxCell>
        <mxCell id="8rLd1wxn6OlxTt_jbVe9-30" style="edgeStyle=orthogonalEdgeStyle;rounded=0;orthogonalLoop=1;jettySize=auto;html=1;endArrow=none;startFill=0;exitX=0.5;exitY=1;exitDx=0;exitDy=0;" parent="1" target="8rLd1wxn6OlxTt_jbVe9-23" edge="1">
          <mxGeometry relative="1" as="geometry">
            <Array as="points">
              <mxPoint x="860" y="200" />
              <mxPoint x="710" y="200" />
            </Array>
            <mxPoint x="850" y="180" as="sourcePoint" />
          </mxGeometry>
        </mxCell>
        <mxCell id="8rLd1wxn6OlxTt_jbVe9-32" style="edgeStyle=orthogonalEdgeStyle;rounded=0;orthogonalLoop=1;jettySize=auto;html=1;entryX=0.5;entryY=0;entryDx=0;entryDy=0;endArrow=none;startFill=0;exitX=0.5;exitY=1;exitDx=0;exitDy=0;" parent="1" source="8rLd1wxn6OlxTt_jbVe9-39" target="8rLd1wxn6OlxTt_jbVe9-23" edge="1">
          <mxGeometry relative="1" as="geometry">
            <mxPoint x="805" y="140" as="sourcePoint" />
            <Array as="points">
              <mxPoint x="790" y="180" />
              <mxPoint x="710" y="180" />
            </Array>
          </mxGeometry>
        </mxCell>
        <mxCell id="8rLd1wxn6OlxTt_jbVe9-38" style="edgeStyle=orthogonalEdgeStyle;rounded=0;orthogonalLoop=1;jettySize=auto;html=1;entryX=0.5;entryY=0;entryDx=0;entryDy=0;endArrow=none;startFill=0;" parent="1" source="8rLd1wxn6OlxTt_jbVe9-36" target="8rLd1wxn6OlxTt_jbVe9-23" edge="1">
          <mxGeometry relative="1" as="geometry">
            <Array as="points">
              <mxPoint x="750" y="180" />
              <mxPoint x="710" y="180" />
            </Array>
          </mxGeometry>
        </mxCell>
        <mxCell id="8rLd1wxn6OlxTt_jbVe9-36" value="Gender" style="ellipse;whiteSpace=wrap;html=1;align=center;strokeWidth=2;" parent="1" vertex="1">
          <mxGeometry x="720" y="140" width="60" height="30" as="geometry" />
        </mxCell>
        <mxCell id="8rLd1wxn6OlxTt_jbVe9-39" value="Birthday" style="ellipse;whiteSpace=wrap;html=1;align=center;strokeWidth=2;" parent="1" vertex="1">
          <mxGeometry x="760" y="110" width="60" height="30" as="geometry" />
        </mxCell>
        <mxCell id="8rLd1wxn6OlxTt_jbVe9-41" style="edgeStyle=orthogonalEdgeStyle;rounded=0;orthogonalLoop=1;jettySize=auto;html=1;entryX=0.5;entryY=0;entryDx=0;entryDy=0;endArrow=none;startFill=0;" parent="1" source="8rLd1wxn6OlxTt_jbVe9-40" target="8rLd1wxn6OlxTt_jbVe9-23" edge="1">
          <mxGeometry relative="1" as="geometry" />
        </mxCell>
        <mxCell id="8rLd1wxn6OlxTt_jbVe9-40" value="Position" style="ellipse;whiteSpace=wrap;html=1;align=center;strokeWidth=2;" parent="1" vertex="1">
          <mxGeometry x="680" y="100" width="60" height="30" as="geometry" />
        </mxCell>
        <mxCell id="8rLd1wxn6OlxTt_jbVe9-48" style="edgeStyle=orthogonalEdgeStyle;rounded=0;orthogonalLoop=1;jettySize=auto;html=1;endArrow=none;startFill=0;entryX=0.5;entryY=0;entryDx=0;entryDy=0;" parent="1" source="8rLd1wxn6OlxTt_jbVe9-43" target="8rLd1wxn6OlxTt_jbVe9-39" edge="1">
          <mxGeometry relative="1" as="geometry">
            <mxPoint x="790" y="100" as="targetPoint" />
          </mxGeometry>
        </mxCell>
        <mxCell id="8rLd1wxn6OlxTt_jbVe9-43" value="DD" style="ellipse;whiteSpace=wrap;html=1;align=center;strokeWidth=2;" parent="1" vertex="1">
          <mxGeometry x="770" y="60" width="40" height="30" as="geometry" />
        </mxCell>
        <mxCell id="8rLd1wxn6OlxTt_jbVe9-47" style="edgeStyle=orthogonalEdgeStyle;rounded=0;orthogonalLoop=1;jettySize=auto;html=1;entryX=0;entryY=0;entryDx=0;entryDy=0;endArrow=none;startFill=0;" parent="1" source="8rLd1wxn6OlxTt_jbVe9-44" target="8rLd1wxn6OlxTt_jbVe9-39" edge="1">
          <mxGeometry relative="1" as="geometry" />
        </mxCell>
        <mxCell id="8rLd1wxn6OlxTt_jbVe9-44" value="MM" style="ellipse;whiteSpace=wrap;html=1;align=center;strokeWidth=2;" parent="1" vertex="1">
          <mxGeometry x="730" y="50" width="40" height="30" as="geometry" />
        </mxCell>
        <mxCell id="8rLd1wxn6OlxTt_jbVe9-49" style="edgeStyle=orthogonalEdgeStyle;rounded=0;orthogonalLoop=1;jettySize=auto;html=1;entryX=1;entryY=0;entryDx=0;entryDy=0;endArrow=none;startFill=0;" parent="1" source="8rLd1wxn6OlxTt_jbVe9-45" target="8rLd1wxn6OlxTt_jbVe9-39" edge="1">
          <mxGeometry relative="1" as="geometry" />
        </mxCell>
        <mxCell id="8rLd1wxn6OlxTt_jbVe9-45" value="YYYY" style="ellipse;whiteSpace=wrap;html=1;align=center;strokeWidth=2;" parent="1" vertex="1">
          <mxGeometry x="810" y="50" width="40" height="30" as="geometry" />
        </mxCell>
        <mxCell id="8rLd1wxn6OlxTt_jbVe9-50" value="&lt;font style=&quot;font-size: 15px;&quot;&gt;Aircraft&lt;/font&gt;" style="rounded=1;arcSize=10;whiteSpace=wrap;html=1;align=center;strokeWidth=2;" parent="1" vertex="1">
          <mxGeometry x="-150" y="220" width="120" height="40" as="geometry" />
        </mxCell>
        <mxCell id="8rLd1wxn6OlxTt_jbVe9-53" style="edgeStyle=orthogonalEdgeStyle;rounded=0;orthogonalLoop=1;jettySize=auto;html=1;endArrow=none;startFill=0;exitX=0.5;exitY=1;exitDx=0;exitDy=0;" parent="1" source="8rLd1wxn6OlxTt_jbVe9-54" edge="1">
          <mxGeometry relative="1" as="geometry">
            <mxPoint x="-90.00000000000011" y="220" as="targetPoint" />
            <Array as="points">
              <mxPoint x="-165" y="200" />
              <mxPoint x="-89" y="200" />
              <mxPoint x="-89" y="220" />
            </Array>
          </mxGeometry>
        </mxCell>
        <mxCell id="8rLd1wxn6OlxTt_jbVe9-54" value="Model" style="ellipse;whiteSpace=wrap;html=1;align=center;strokeWidth=2;" parent="1" vertex="1">
          <mxGeometry x="-190" y="150" width="50" height="30" as="geometry" />
        </mxCell>
        <mxCell id="8rLd1wxn6OlxTt_jbVe9-55" style="edgeStyle=orthogonalEdgeStyle;rounded=0;orthogonalLoop=1;jettySize=auto;html=1;entryX=0.5;entryY=0;entryDx=0;entryDy=0;endArrow=none;startFill=0;" parent="1" source="8rLd1wxn6OlxTt_jbVe9-56" target="8rLd1wxn6OlxTt_jbVe9-50" edge="1">
          <mxGeometry relative="1" as="geometry" />
        </mxCell>
        <mxCell id="8rLd1wxn6OlxTt_jbVe9-56" value="&lt;u&gt;Aircraft-ID&lt;/u&gt;" style="ellipse;whiteSpace=wrap;html=1;align=center;strokeWidth=2;" parent="1" vertex="1">
          <mxGeometry x="-125" y="140" width="70" height="30" as="geometry" />
        </mxCell>
        <mxCell id="8rLd1wxn6OlxTt_jbVe9-62" style="edgeStyle=orthogonalEdgeStyle;rounded=0;orthogonalLoop=1;jettySize=auto;html=1;entryX=0.5;entryY=0;entryDx=0;entryDy=0;endArrow=none;startFill=0;" parent="1" source="8rLd1wxn6OlxTt_jbVe9-61" target="8rLd1wxn6OlxTt_jbVe9-50" edge="1">
          <mxGeometry relative="1" as="geometry" />
        </mxCell>
        <mxCell id="8rLd1wxn6OlxTt_jbVe9-61" value="Capacity" style="ellipse;whiteSpace=wrap;html=1;align=center;strokeWidth=2;" parent="1" vertex="1">
          <mxGeometry x="-40" y="150" width="60" height="30" as="geometry" />
        </mxCell>
        <mxCell id="8rLd1wxn6OlxTt_jbVe9-63" value="&lt;font style=&quot;font-size: 15px;&quot;&gt;Route&lt;/font&gt;" style="rounded=1;arcSize=10;whiteSpace=wrap;html=1;align=center;strokeWidth=2;" parent="1" vertex="1">
          <mxGeometry x="55" y="450" width="120" height="40" as="geometry" />
        </mxCell>
        <mxCell id="8rLd1wxn6OlxTt_jbVe9-64" style="edgeStyle=orthogonalEdgeStyle;rounded=0;orthogonalLoop=1;jettySize=auto;html=1;entryX=0.5;entryY=0;entryDx=0;entryDy=0;endArrow=none;startFill=0;exitX=0.5;exitY=1;exitDx=0;exitDy=0;" parent="1" source="8rLd1wxn6OlxTt_jbVe9-65" target="8rLd1wxn6OlxTt_jbVe9-63" edge="1">
          <mxGeometry relative="1" as="geometry">
            <Array as="points">
              <mxPoint x="-5" y="430" />
              <mxPoint x="115" y="430" />
            </Array>
          </mxGeometry>
        </mxCell>
        <mxCell id="8rLd1wxn6OlxTt_jbVe9-65" value="&lt;u&gt;Route-ID&lt;/u&gt;" style="ellipse;whiteSpace=wrap;html=1;align=center;strokeWidth=2;" parent="1" vertex="1">
          <mxGeometry x="-40" y="375" width="70" height="40" as="geometry" />
        </mxCell>
        <mxCell id="8rLd1wxn6OlxTt_jbVe9-66" style="edgeStyle=orthogonalEdgeStyle;rounded=0;orthogonalLoop=1;jettySize=auto;html=1;endArrow=none;startFill=0;exitX=0.5;exitY=1;exitDx=0;exitDy=0;" parent="1" source="8rLd1wxn6OlxTt_jbVe9-67" edge="1">
          <mxGeometry relative="1" as="geometry">
            <mxPoint x="114.99999999999989" y="450" as="targetPoint" />
          </mxGeometry>
        </mxCell>
        <mxCell id="8rLd1wxn6OlxTt_jbVe9-67" value="Origin" style="ellipse;whiteSpace=wrap;html=1;align=center;strokeWidth=2;" parent="1" vertex="1">
          <mxGeometry x="15" y="340" width="50" height="30" as="geometry" />
        </mxCell>
        <mxCell id="8rLd1wxn6OlxTt_jbVe9-70" style="edgeStyle=orthogonalEdgeStyle;rounded=0;orthogonalLoop=1;jettySize=auto;html=1;endArrow=none;startFill=0;exitX=0.5;exitY=1;exitDx=0;exitDy=0;" parent="1" source="8rLd1wxn6OlxTt_jbVe9-71" target="8rLd1wxn6OlxTt_jbVe9-63" edge="1">
          <mxGeometry relative="1" as="geometry">
            <Array as="points">
              <mxPoint x="245" y="430" />
              <mxPoint x="115" y="430" />
            </Array>
          </mxGeometry>
        </mxCell>
        <mxCell id="8rLd1wxn6OlxTt_jbVe9-71" value="Distination" style="ellipse;whiteSpace=wrap;html=1;align=center;strokeWidth=2;" parent="1" vertex="1">
          <mxGeometry x="205" y="375" width="80" height="40" as="geometry" />
        </mxCell>
        <mxCell id="8rLd1wxn6OlxTt_jbVe9-72" style="edgeStyle=orthogonalEdgeStyle;rounded=0;orthogonalLoop=1;jettySize=auto;html=1;entryX=0.5;entryY=0;entryDx=0;entryDy=0;endArrow=none;startFill=0;exitX=0.5;exitY=1;exitDx=0;exitDy=0;" parent="1" source="8rLd1wxn6OlxTt_jbVe9-84" target="8rLd1wxn6OlxTt_jbVe9-63" edge="1">
          <mxGeometry relative="1" as="geometry">
            <mxPoint x="195" y="370" as="sourcePoint" />
            <Array as="points">
              <mxPoint x="195" y="365" />
              <mxPoint x="195" y="410" />
              <mxPoint x="115" y="410" />
            </Array>
          </mxGeometry>
        </mxCell>
        <mxCell id="8rLd1wxn6OlxTt_jbVe9-76" style="edgeStyle=orthogonalEdgeStyle;rounded=0;orthogonalLoop=1;jettySize=auto;html=1;entryX=0.5;entryY=0;entryDx=0;entryDy=0;endArrow=none;startFill=0;" parent="1" source="8rLd1wxn6OlxTt_jbVe9-77" target="8rLd1wxn6OlxTt_jbVe9-63" edge="1">
          <mxGeometry relative="1" as="geometry" />
        </mxCell>
        <mxCell id="8rLd1wxn6OlxTt_jbVe9-77" value="Distance" style="ellipse;whiteSpace=wrap;html=1;align=center;strokeWidth=2;" parent="1" vertex="1">
          <mxGeometry x="85" y="330" width="60" height="30" as="geometry" />
        </mxCell>
        <mxCell id="8rLd1wxn6OlxTt_jbVe9-84" value="Classification" style="ellipse;shape=doubleEllipse;margin=3;whiteSpace=wrap;html=1;align=center;" parent="1" vertex="1">
          <mxGeometry x="155" y="335" width="90" height="40" as="geometry" />
        </mxCell>
        <mxCell id="8rLd1wxn6OlxTt_jbVe9-85" value="&lt;font style=&quot;font-size: 15px;&quot;&gt;Crew&lt;/font&gt;" style="shape=ext;margin=3;double=1;whiteSpace=wrap;html=1;align=center;strokeWidth=2;" parent="1" vertex="1">
          <mxGeometry x="-510" y="220" width="120" height="40" as="geometry" />
        </mxCell>
        <mxCell id="8rLd1wxn6OlxTt_jbVe9-87" style="edgeStyle=orthogonalEdgeStyle;rounded=0;orthogonalLoop=1;jettySize=auto;html=1;endArrow=none;startFill=0;" parent="1" source="8rLd1wxn6OlxTt_jbVe9-86" target="8rLd1wxn6OlxTt_jbVe9-85" edge="1">
          <mxGeometry relative="1" as="geometry" />
        </mxCell>
        <mxCell id="8rLd1wxn6OlxTt_jbVe9-86" value="Pilot" style="ellipse;whiteSpace=wrap;html=1;align=center;strokeWidth=2;" parent="1" vertex="1">
          <mxGeometry x="-560" y="150" width="60" height="30" as="geometry" />
        </mxCell>
        <mxCell id="8rLd1wxn6OlxTt_jbVe9-94" style="edgeStyle=orthogonalEdgeStyle;rounded=0;orthogonalLoop=1;jettySize=auto;html=1;entryX=0.5;entryY=0;entryDx=0;entryDy=0;endArrow=none;endFill=1;startFill=0;" parent="1" source="8rLd1wxn6OlxTt_jbVe9-88" target="8rLd1wxn6OlxTt_jbVe9-85" edge="1">
          <mxGeometry relative="1" as="geometry">
            <Array as="points">
              <mxPoint x="-490" y="185" />
              <mxPoint x="-450" y="185" />
            </Array>
          </mxGeometry>
        </mxCell>
        <mxCell id="8rLd1wxn6OlxTt_jbVe9-88" value="Assistant" style="ellipse;whiteSpace=wrap;html=1;align=center;strokeWidth=2;" parent="1" vertex="1">
          <mxGeometry x="-520" y="120" width="60" height="30" as="geometry" />
        </mxCell>
        <mxCell id="8rLd1wxn6OlxTt_jbVe9-91" style="edgeStyle=orthogonalEdgeStyle;rounded=0;orthogonalLoop=1;jettySize=auto;html=1;endArrow=none;startFill=0;exitX=0.5;exitY=1;exitDx=0;exitDy=0;" parent="1" source="8rLd1wxn6OlxTt_jbVe9-90" target="8rLd1wxn6OlxTt_jbVe9-85" edge="1">
          <mxGeometry relative="1" as="geometry">
            <Array as="points">
              <mxPoint x="-370" y="200" />
              <mxPoint x="-450" y="200" />
            </Array>
          </mxGeometry>
        </mxCell>
        <mxCell id="8rLd1wxn6OlxTt_jbVe9-90" value="Hostes2" style="ellipse;whiteSpace=wrap;html=1;align=center;strokeWidth=2;" parent="1" vertex="1">
          <mxGeometry x="-400" y="150" width="60" height="30" as="geometry" />
        </mxCell>
        <mxCell id="8rLd1wxn6OlxTt_jbVe9-93" style="edgeStyle=orthogonalEdgeStyle;rounded=0;orthogonalLoop=1;jettySize=auto;html=1;entryX=0.5;entryY=0;entryDx=0;entryDy=0;endArrow=none;startFill=0;" parent="1" source="8rLd1wxn6OlxTt_jbVe9-92" target="8rLd1wxn6OlxTt_jbVe9-85" edge="1">
          <mxGeometry relative="1" as="geometry" />
        </mxCell>
        <mxCell id="8rLd1wxn6OlxTt_jbVe9-92" value="Hostes1" style="ellipse;whiteSpace=wrap;html=1;align=center;strokeWidth=2;" parent="1" vertex="1">
          <mxGeometry x="-440" y="120" width="60" height="30" as="geometry" />
        </mxCell>
        <mxCell id="8rLd1wxn6OlxTt_jbVe9-96" style="edgeStyle=orthogonalEdgeStyle;rounded=0;orthogonalLoop=1;jettySize=auto;html=1;endArrow=none;startFill=0;exitX=0.5;exitY=1;exitDx=0;exitDy=0;" parent="1" source="8rLd1wxn6OlxTt_jbVe9-97" edge="1">
          <mxGeometry relative="1" as="geometry">
            <mxPoint x="695.0000000000002" y="410" as="targetPoint" />
            <Array as="points">
              <mxPoint x="615" y="410" />
            </Array>
          </mxGeometry>
        </mxCell>
        <mxCell id="8rLd1wxn6OlxTt_jbVe9-97" value="Date" style="ellipse;whiteSpace=wrap;html=1;align=center;strokeWidth=2;" parent="1" vertex="1">
          <mxGeometry x="580" y="370" width="60" height="30" as="geometry" />
        </mxCell>
        <mxCell id="8rLd1wxn6OlxTt_jbVe9-98" style="edgeStyle=orthogonalEdgeStyle;rounded=0;orthogonalLoop=1;jettySize=auto;html=1;entryX=0.5;entryY=0;entryDx=0;entryDy=0;endArrow=none;endFill=1;startFill=0;" parent="1" source="8rLd1wxn6OlxTt_jbVe9-99" edge="1">
          <mxGeometry relative="1" as="geometry">
            <Array as="points">
              <mxPoint x="655" y="400" />
              <mxPoint x="695" y="400" />
            </Array>
            <mxPoint x="695" y="410" as="targetPoint" />
          </mxGeometry>
        </mxCell>
        <mxCell id="8rLd1wxn6OlxTt_jbVe9-99" value="&lt;u&gt;Trans-ID&lt;/u&gt;" style="ellipse;whiteSpace=wrap;html=1;align=center;strokeWidth=2;" parent="1" vertex="1">
          <mxGeometry x="625" y="340" width="60" height="30" as="geometry" />
        </mxCell>
        <mxCell id="8rLd1wxn6OlxTt_jbVe9-100" style="edgeStyle=orthogonalEdgeStyle;rounded=0;orthogonalLoop=1;jettySize=auto;html=1;endArrow=none;startFill=0;exitX=0.5;exitY=1;exitDx=0;exitDy=0;entryX=0.5;entryY=0;entryDx=0;entryDy=0;" parent="1" source="8rLd1wxn6OlxTt_jbVe9-101" target="8rLd1wxn6OlxTt_jbVe9-104" edge="1">
          <mxGeometry relative="1" as="geometry">
            <Array as="points">
              <mxPoint x="775" y="410" />
              <mxPoint x="695" y="410" />
              <mxPoint x="695" y="430" />
            </Array>
            <mxPoint x="695.0000000000002" y="410" as="targetPoint" />
          </mxGeometry>
        </mxCell>
        <mxCell id="8rLd1wxn6OlxTt_jbVe9-101" value="Amount" style="ellipse;whiteSpace=wrap;html=1;align=center;strokeWidth=2;" parent="1" vertex="1">
          <mxGeometry x="745" y="370" width="60" height="30" as="geometry" />
        </mxCell>
        <mxCell id="8rLd1wxn6OlxTt_jbVe9-102" style="edgeStyle=orthogonalEdgeStyle;rounded=0;orthogonalLoop=1;jettySize=auto;html=1;entryX=0.5;entryY=0;entryDx=0;entryDy=0;endArrow=none;startFill=0;exitX=0.5;exitY=1;exitDx=0;exitDy=0;" parent="1" source="8rLd1wxn6OlxTt_jbVe9-103" target="8rLd1wxn6OlxTt_jbVe9-104" edge="1">
          <mxGeometry relative="1" as="geometry">
            <mxPoint x="695" y="410" as="targetPoint" />
            <Array as="points">
              <mxPoint x="725" y="400" />
              <mxPoint x="700" y="400" />
            </Array>
          </mxGeometry>
        </mxCell>
        <mxCell id="8rLd1wxn6OlxTt_jbVe9-103" value="Description" style="ellipse;whiteSpace=wrap;html=1;align=center;strokeWidth=2;" parent="1" vertex="1">
          <mxGeometry x="695" y="340" width="70" height="30" as="geometry" />
        </mxCell>
        <mxCell id="8rLd1wxn6OlxTt_jbVe9-104" value="&lt;font style=&quot;font-size: 15px;&quot;&gt;Transaction&lt;/font&gt;" style="rounded=1;arcSize=10;whiteSpace=wrap;html=1;align=center;strokeWidth=2;" parent="1" vertex="1">
          <mxGeometry x="640" y="430" width="120" height="40" as="geometry" />
        </mxCell>
        <mxCell id="8rLd1wxn6OlxTt_jbVe9-106" style="edgeStyle=orthogonalEdgeStyle;rounded=0;orthogonalLoop=1;jettySize=auto;html=1;entryX=0;entryY=0.5;entryDx=0;entryDy=0;exitX=1;exitY=0.5;exitDx=0;exitDy=0;" parent="1" source="8rLd1wxn6OlxTt_jbVe9-105" target="8rLd1wxn6OlxTt_jbVe9-2" edge="1">
          <mxGeometry relative="1" as="geometry">
            <mxPoint x="155" y="240" as="sourcePoint" />
          </mxGeometry>
        </mxCell>
        <mxCell id="8rLd1wxn6OlxTt_jbVe9-109" value="&lt;font style=&quot;font-size: 13px;&quot;&gt;&lt;b&gt;1&lt;/b&gt;&lt;/font&gt;" style="edgeLabel;html=1;align=center;verticalAlign=middle;resizable=0;points=[];" parent="8rLd1wxn6OlxTt_jbVe9-106" vertex="1" connectable="0">
          <mxGeometry x="0.2889" relative="1" as="geometry">
            <mxPoint as="offset" />
          </mxGeometry>
        </mxCell>
        <mxCell id="8rLd1wxn6OlxTt_jbVe9-107" style="edgeStyle=orthogonalEdgeStyle;rounded=0;orthogonalLoop=1;jettySize=auto;html=1;entryX=1;entryY=0.5;entryDx=0;entryDy=0;shape=link;" parent="1" source="8rLd1wxn6OlxTt_jbVe9-105" target="8rLd1wxn6OlxTt_jbVe9-50" edge="1">
          <mxGeometry relative="1" as="geometry" />
        </mxCell>
        <mxCell id="8rLd1wxn6OlxTt_jbVe9-108" value="&lt;font style=&quot;font-size: 13px;&quot;&gt;&lt;b&gt;M&lt;/b&gt;&lt;/font&gt;" style="edgeLabel;html=1;align=center;verticalAlign=middle;resizable=0;points=[];" parent="8rLd1wxn6OlxTt_jbVe9-107" vertex="1" connectable="0">
          <mxGeometry x="0.3417" y="-2" relative="1" as="geometry">
            <mxPoint as="offset" />
          </mxGeometry>
        </mxCell>
        <mxCell id="8rLd1wxn6OlxTt_jbVe9-105" value="Has" style="shape=rhombus;perimeter=rhombusPerimeter;whiteSpace=wrap;html=1;align=center;strokeWidth=2;" parent="1" vertex="1">
          <mxGeometry x="65" y="215" width="80" height="50" as="geometry" />
        </mxCell>
        <mxCell id="8rLd1wxn6OlxTt_jbVe9-114" style="edgeStyle=orthogonalEdgeStyle;rounded=0;orthogonalLoop=1;jettySize=auto;html=1;entryX=1;entryY=0.5;entryDx=0;entryDy=0;shape=link;" parent="1" target="8rLd1wxn6OlxTt_jbVe9-2" edge="1">
          <mxGeometry relative="1" as="geometry">
            <mxPoint x="485" y="240" as="sourcePoint" />
          </mxGeometry>
        </mxCell>
        <mxCell id="8rLd1wxn6OlxTt_jbVe9-117" value="&lt;font style=&quot;font-size: 13px;&quot;&gt;&lt;b&gt;1&lt;/b&gt;&lt;/font&gt;" style="edgeLabel;html=1;align=center;verticalAlign=middle;resizable=0;points=[];" parent="8rLd1wxn6OlxTt_jbVe9-114" vertex="1" connectable="0">
          <mxGeometry x="0.5889" y="1" relative="1" as="geometry">
            <mxPoint as="offset" />
          </mxGeometry>
        </mxCell>
        <mxCell id="8rLd1wxn6OlxTt_jbVe9-115" style="edgeStyle=orthogonalEdgeStyle;rounded=0;orthogonalLoop=1;jettySize=auto;html=1;entryX=0;entryY=0.5;entryDx=0;entryDy=0;shape=link;" parent="1" source="8rLd1wxn6OlxTt_jbVe9-110" target="8rLd1wxn6OlxTt_jbVe9-23" edge="1">
          <mxGeometry relative="1" as="geometry" />
        </mxCell>
        <mxCell id="8rLd1wxn6OlxTt_jbVe9-118" value="&lt;font style=&quot;font-size: 13px;&quot;&gt;&lt;b&gt;M&lt;/b&gt;&lt;/font&gt;" style="edgeLabel;html=1;align=center;verticalAlign=middle;resizable=0;points=[];" parent="8rLd1wxn6OlxTt_jbVe9-115" vertex="1" connectable="0">
          <mxGeometry x="0.403" relative="1" as="geometry">
            <mxPoint as="offset" />
          </mxGeometry>
        </mxCell>
        <mxCell id="8rLd1wxn6OlxTt_jbVe9-110" value="Works In" style="shape=rhombus;perimeter=rhombusPerimeter;whiteSpace=wrap;html=1;align=center;strokeWidth=2;" parent="1" vertex="1">
          <mxGeometry x="460" y="215" width="80" height="50" as="geometry" />
        </mxCell>
        <mxCell id="8rLd1wxn6OlxTt_jbVe9-120" style="edgeStyle=orthogonalEdgeStyle;rounded=0;orthogonalLoop=1;jettySize=auto;html=1;entryX=0;entryY=0.5;entryDx=0;entryDy=0;" parent="1" source="8rLd1wxn6OlxTt_jbVe9-119" target="8rLd1wxn6OlxTt_jbVe9-63" edge="1">
          <mxGeometry relative="1" as="geometry" />
        </mxCell>
        <mxCell id="8rLd1wxn6OlxTt_jbVe9-122" value="&lt;font style=&quot;font-size: 13px;&quot;&gt;&lt;b&gt;M&lt;/b&gt;&lt;/font&gt;" style="edgeLabel;html=1;align=center;verticalAlign=middle;resizable=0;points=[];" parent="8rLd1wxn6OlxTt_jbVe9-120" vertex="1" connectable="0">
          <mxGeometry x="0.6621" relative="1" as="geometry">
            <mxPoint as="offset" />
          </mxGeometry>
        </mxCell>
        <mxCell id="8rLd1wxn6OlxTt_jbVe9-119" value="Assigned" style="shape=rhombus;perimeter=rhombusPerimeter;whiteSpace=wrap;html=1;align=center;strokeWidth=2;" parent="1" vertex="1">
          <mxGeometry x="-250" y="445" width="80" height="50" as="geometry" />
        </mxCell>
        <mxCell id="8rLd1wxn6OlxTt_jbVe9-121" style="edgeStyle=orthogonalEdgeStyle;rounded=0;orthogonalLoop=1;jettySize=auto;html=1;entryX=0.5;entryY=1;entryDx=0;entryDy=0;" parent="1" source="8rLd1wxn6OlxTt_jbVe9-119" target="8rLd1wxn6OlxTt_jbVe9-50" edge="1">
          <mxGeometry relative="1" as="geometry">
            <Array as="points">
              <mxPoint x="-210" y="330" />
              <mxPoint x="-90" y="330" />
            </Array>
          </mxGeometry>
        </mxCell>
        <mxCell id="8rLd1wxn6OlxTt_jbVe9-123" value="&lt;font style=&quot;font-size: 13px;&quot;&gt;&lt;b&gt;N&lt;/b&gt;&lt;/font&gt;" style="edgeLabel;html=1;align=center;verticalAlign=middle;resizable=0;points=[];" parent="8rLd1wxn6OlxTt_jbVe9-121" vertex="1" connectable="0">
          <mxGeometry x="0.7751" relative="1" as="geometry">
            <mxPoint as="offset" />
          </mxGeometry>
        </mxCell>
        <mxCell id="8rLd1wxn6OlxTt_jbVe9-148" style="edgeStyle=orthogonalEdgeStyle;rounded=0;orthogonalLoop=1;jettySize=auto;html=1;entryX=0;entryY=0;entryDx=0;entryDy=0;endArrow=none;startFill=0;" parent="1" source="8rLd1wxn6OlxTt_jbVe9-124" target="8rLd1wxn6OlxTt_jbVe9-119" edge="1">
          <mxGeometry relative="1" as="geometry" />
        </mxCell>
        <mxCell id="8rLd1wxn6OlxTt_jbVe9-124" value="Passengers" style="ellipse;whiteSpace=wrap;html=1;align=center;strokeWidth=2;" parent="1" vertex="1">
          <mxGeometry x="-300" y="395" width="70" height="30" as="geometry" />
        </mxCell>
        <mxCell id="8rLd1wxn6OlxTt_jbVe9-150" style="edgeStyle=orthogonalEdgeStyle;rounded=0;orthogonalLoop=1;jettySize=auto;html=1;entryX=0;entryY=0.5;entryDx=0;entryDy=0;endArrow=none;startFill=0;" parent="1" source="8rLd1wxn6OlxTt_jbVe9-126" target="8rLd1wxn6OlxTt_jbVe9-119" edge="1">
          <mxGeometry relative="1" as="geometry" />
        </mxCell>
        <mxCell id="8rLd1wxn6OlxTt_jbVe9-126" value=" departure date-time" style="ellipse;whiteSpace=wrap;html=1;align=center;strokeWidth=2;" parent="1" vertex="1">
          <mxGeometry x="-420" y="425" width="130" height="50" as="geometry" />
        </mxCell>
        <mxCell id="8rLd1wxn6OlxTt_jbVe9-128" value=" Arrival date-time" style="ellipse;whiteSpace=wrap;html=1;align=center;strokeWidth=2;" parent="1" vertex="1">
          <mxGeometry x="-300" y="533" width="100" height="35" as="geometry" />
        </mxCell>
        <mxCell id="8rLd1wxn6OlxTt_jbVe9-130" style="edgeStyle=orthogonalEdgeStyle;rounded=0;orthogonalLoop=1;jettySize=auto;html=1;entryX=0.5;entryY=1;entryDx=0;entryDy=0;endArrow=none;startFill=0;" parent="1" source="8rLd1wxn6OlxTt_jbVe9-128" target="8rLd1wxn6OlxTt_jbVe9-119" edge="1">
          <mxGeometry relative="1" as="geometry" />
        </mxCell>
        <mxCell id="8rLd1wxn6OlxTt_jbVe9-132" style="edgeStyle=orthogonalEdgeStyle;rounded=0;orthogonalLoop=1;jettySize=auto;html=1;entryX=0;entryY=1;entryDx=0;entryDy=0;endArrow=none;startFill=0;" parent="1" source="8rLd1wxn6OlxTt_jbVe9-131" target="8rLd1wxn6OlxTt_jbVe9-119" edge="1">
          <mxGeometry relative="1" as="geometry" />
        </mxCell>
        <mxCell id="8rLd1wxn6OlxTt_jbVe9-131" value="Spent-Time" style="ellipse;whiteSpace=wrap;html=1;align=center;strokeWidth=2;" parent="1" vertex="1">
          <mxGeometry x="-360" y="490" width="80" height="30" as="geometry" />
        </mxCell>
        <mxCell id="8rLd1wxn6OlxTt_jbVe9-134" style="edgeStyle=orthogonalEdgeStyle;rounded=0;orthogonalLoop=1;jettySize=auto;html=1;entryX=0;entryY=0.5;entryDx=0;entryDy=0;exitX=1;exitY=0.5;exitDx=0;exitDy=0;" parent="1" source="8rLd1wxn6OlxTt_jbVe9-137" target="8rLd1wxn6OlxTt_jbVe9-50" edge="1">
          <mxGeometry relative="1" as="geometry">
            <mxPoint x="-230" y="240" as="sourcePoint" />
          </mxGeometry>
        </mxCell>
        <mxCell id="8rLd1wxn6OlxTt_jbVe9-140" value="&lt;font style=&quot;font-size: 13px;&quot;&gt;&lt;b&gt;1&lt;/b&gt;&lt;/font&gt;" style="edgeLabel;html=1;align=center;verticalAlign=middle;resizable=0;points=[];" parent="8rLd1wxn6OlxTt_jbVe9-134" vertex="1" connectable="0">
          <mxGeometry x="0.4484" relative="1" as="geometry">
            <mxPoint as="offset" />
          </mxGeometry>
        </mxCell>
        <mxCell id="8rLd1wxn6OlxTt_jbVe9-135" style="edgeStyle=orthogonalEdgeStyle;rounded=0;orthogonalLoop=1;jettySize=auto;html=1;entryX=1;entryY=0.5;entryDx=0;entryDy=0;exitX=0;exitY=0.5;exitDx=0;exitDy=0;shape=link;" parent="1" source="8rLd1wxn6OlxTt_jbVe9-137" target="8rLd1wxn6OlxTt_jbVe9-85" edge="1">
          <mxGeometry relative="1" as="geometry">
            <mxPoint x="-310" y="240" as="sourcePoint" />
          </mxGeometry>
        </mxCell>
        <mxCell id="8rLd1wxn6OlxTt_jbVe9-139" value="&lt;font style=&quot;font-size: 13px;&quot;&gt;&lt;b&gt;1&lt;/b&gt;&lt;/font&gt;" style="edgeLabel;html=1;align=center;verticalAlign=middle;resizable=0;points=[];" parent="8rLd1wxn6OlxTt_jbVe9-135" vertex="1" connectable="0">
          <mxGeometry x="0.4735" y="-1" relative="1" as="geometry">
            <mxPoint as="offset" />
          </mxGeometry>
        </mxCell>
        <mxCell id="8rLd1wxn6OlxTt_jbVe9-137" value="Own" style="shape=rhombus;double=1;perimeter=rhombusPerimeter;whiteSpace=wrap;html=1;align=center;" parent="1" vertex="1">
          <mxGeometry x="-310" y="220" width="70" height="40" as="geometry" />
        </mxCell>
        <mxCell id="8rLd1wxn6OlxTt_jbVe9-142" style="edgeStyle=orthogonalEdgeStyle;rounded=0;orthogonalLoop=1;jettySize=auto;html=1;entryX=0;entryY=0.5;entryDx=0;entryDy=0;shape=link;" parent="1" source="8rLd1wxn6OlxTt_jbVe9-141" target="8rLd1wxn6OlxTt_jbVe9-104" edge="1">
          <mxGeometry relative="1" as="geometry" />
        </mxCell>
        <mxCell id="8rLd1wxn6OlxTt_jbVe9-144" value="&lt;font style=&quot;font-size: 13px;&quot;&gt;&lt;b&gt;M&lt;/b&gt;&lt;/font&gt;" style="edgeLabel;html=1;align=center;verticalAlign=middle;resizable=0;points=[];" parent="8rLd1wxn6OlxTt_jbVe9-142" vertex="1" connectable="0">
          <mxGeometry x="0.44" relative="1" as="geometry">
            <mxPoint as="offset" />
          </mxGeometry>
        </mxCell>
        <mxCell id="8rLd1wxn6OlxTt_jbVe9-141" value="Record" style="shape=rhombus;perimeter=rhombusPerimeter;whiteSpace=wrap;html=1;align=center;strokeWidth=2;" parent="1" vertex="1">
          <mxGeometry x="460" y="425" width="80" height="50" as="geometry" />
        </mxCell>
        <mxCell id="8rLd1wxn6OlxTt_jbVe9-143" style="edgeStyle=orthogonalEdgeStyle;rounded=0;orthogonalLoop=1;jettySize=auto;html=1;entryX=0.835;entryY=1.024;entryDx=0;entryDy=0;entryPerimeter=0;shape=link;" parent="1" source="8rLd1wxn6OlxTt_jbVe9-141" target="8rLd1wxn6OlxTt_jbVe9-2" edge="1">
          <mxGeometry relative="1" as="geometry" />
        </mxCell>
        <mxCell id="8rLd1wxn6OlxTt_jbVe9-145" value="&lt;font style=&quot;font-size: 13px;&quot;&gt;&lt;b&gt;1&lt;/b&gt;&lt;/font&gt;" style="edgeLabel;html=1;align=center;verticalAlign=middle;resizable=0;points=[];" parent="8rLd1wxn6OlxTt_jbVe9-143" vertex="1" connectable="0">
          <mxGeometry x="0.8549" relative="1" as="geometry">
            <mxPoint as="offset" />
          </mxGeometry>
        </mxCell>
        <mxCell id="sc2xYC5MBYnwX2dGzBuU-190" value="Qualifications" style="ellipse;shape=doubleEllipse;margin=3;whiteSpace=wrap;html=1;align=center;" vertex="1" parent="1">
          <mxGeometry x="805" y="145" width="100" height="40" as="geometry" />
        </mxCell>
      </root>
    </mxGraphModel>
  </diagram>
</mxfile>
